PathFileType	4	(X/Y/Z)	S00_P01_T02_Participants1-2_P2_0-100.trc
DataRate	CameraRate	NumFrames	NumMarkers	Units	OrigDataRate	OrigDataStartFrame	OrigNumFrames
60	60	8	21	m	60	87	100
Frame#	Time	RHip			RKnee			RAnkle			RBigToe			RSmallToe			RHeel			LHip			LKnee			LAnkle			LBigToe			LSmallToe			LHeel			Neck			Head			Nose			RShoulder			RElbow			RWrist			LShoulder			LElbow			LWrist		
		X1	Y1	Z1	X2	Y2	Z2	X3	Y3	Z3	X4	Y4	Z4	X5	Y5	Z5	X6	Y6	Z6	X7	Y7	Z7	X8	Y8	Z8	X9	Y9	Z9	X10	Y10	Z10	X11	Y11	Z11	X12	Y12	Z12	X13	Y13	Z13	X14	Y14	Z14	X15	Y15	Z15	X16	Y16	Z16	X17	Y17	Z17	X18	Y18	Z18	X19	Y19	Z19	X20	Y20	Z20	X21	Y21	Z21
88	1.4666666666666666	-0.07591964366243693	0.907302683596034	-0.715423776382399	-0.09018962981874215	0.5030677295015232	-0.69090721946319	-0.05270427300575549	0.14182750436196226	-0.7457354354550815	-0.055150732301561874	0.03894508674582536	-0.6018955848806464	-0.09152246038387557	0.036253717505348844	-0.6415950274327475	-0.034390766185743125	0.10928461518189803	-0.7977730047818719	0.13196308200139475	0.8939907042719699	-0.7359837498958698	0.08264924273379293	0.5082780949852118	-0.6860877477732827	0.036145598077097454	0.2342329587235411	-0.9462343208872284	0.041472425169434994	0.10843455415289371	-0.8418004992052185	0.07317433848961233	0.12617230559142112	-0.9069986135218333	0.0399262172235281	0.22396690827152016	-0.9907971586720017	-0.04159312632979304	1.419154368174099	-0.613988630131189	-0.06750536119214666	1.6360343056091904	-0.4084698458302355	-0.044241855738518784	1.4872233459609707	-0.4299196999538983	-0.20529554208580236	1.3839225678814628	-0.6366963430014664	-0.4067988026336337	1.209722107007923	-0.6846612604247582	-0.5075686435434111	1.2239551855713824	-0.4319861920464882	0.11654236005578182	1.4293479079590008	-0.7134727616893913	0.35978501257330453	1.3957422217588273	-0.7145876906930957	0.6016282899292645	1.3484212022182707	-0.6897593967203
89	1.4833333333333334	-0.07165417854548933	0.9066583702266027	-0.7100678941375694	-0.09071256170931245	0.503235309105753	-0.6879999021170864	-0.052182820363403784	0.14417605955236182	-0.7399326032967865	-0.055156798798778	0.04007844959055273	-0.6007595878139314	-0.09380127906587053	0.03799086450029044	-0.6439669969985115	-0.03355319246340528	0.11181643871296804	-0.7970177418378656	0.13295272034757002	0.8970367550254799	-0.7388691858669885	0.08723084518050839	0.5126072129140009	-0.6642941019897939	0.04086282114949318	0.22779686368763088	-0.9142288166498731	0.0496403205389061	0.11038593628753735	-0.8026095491656893	0.08435884934046964	0.12595504932684137	-0.8696852744064588	0.047223062436488925	0.21662735060768867	-0.9529444534502054	-0.04966658861590981	1.4172864222511254	-0.6009219782373543	-0.08522387442260768	1.630760360614938	-0.39429127200270175	-0.057236373510903334	1.4821690614020198	-0.41591782696662133	-0.21021717907619214	1.374281707602151	-0.6381910160688429	-0.4062712042023914	1.1951181676107867	-0.6776502966865685	-0.5181083622123269	1.202138688536786	-0.43185591199481016	0.1167268975019975	1.4329241297444182	-0.6818333996369242	0.3521776606969626	1.4147495236508554	-0.700489386436703	0.5934944725893919	1.3912270490873104	-0.6643388721968728
90	1.5	-0.06856171033016774	0.9060046693731179	-0.7069287821217536	-0.09108279566454092	0.5037096248734917	-0.6831383309221097	-0.051295703065877093	0.14553864660608942	-0.7331527507579876	-0.0554954092658791	0.04164118995731433	-0.5997011355854207	-0.09603935255484881	0.03985254750721523	-0.6462171759716733	-0.03250512680079027	0.11229698842693778	-0.7956138924385359	0.1312652985447226	0.901341943271115	-0.7464129343475597	0.09071398904067576	0.5163842753512576	-0.6455316074891942	0.04638635027789323	0.22095756346332648	-0.8802187473927969	0.05670575498790468	0.11100512213428879	-0.7613886337634403	0.09315134250833022	0.12461456249706601	-0.8245676344429506	0.05352368292829028	0.20703828291424928	-0.9198930875160886	-0.056723211073076825	1.4145651888602568	-0.5895420196124445	-0.10107339847893998	1.6249529518026251	-0.3816757447864325	-0.06807867669075535	1.4755536537937248	-0.40448791779387255	-0.21347092093183714	1.365706117797415	-0.6385341901562849	-0.40433348658195667	1.181392524268273	-0.6698484626497984	-0.5250440276277903	1.180420076475151	-0.4343091745462245	0.11756223582559155	1.435096057349285	-0.6516555964769939	0.34514226256	1.4307610426363597	-0.6938962024646188	0.5807144080195004	1.4299314833724026	-0.6395734615572544
91	1.5166666666666666	-0.06620004665336711	0.9055590744484198	-0.7051769155443167	-0.09124617970048209	0.5040247645479993	-0.67683921238637	-0.05008038233906668	0.14604442145620172	-0.7266632831510131	-0.056390704515012484	0.04330107178903483	-0.5993848432539431	-0.09815668877418116	0.04170741744894066	-0.6484566646541516	-0.03124430312564879	0.1111104251136824	-0.7943234974532114	0.12861119575160648	0.9060400804470586	-0.7542647047266652	0.09317277470488668	0.5197108726523387	-0.6286566205072238	0.05320432981346308	0.2151096225619783	-0.8438208285170967	0.0622786340293242	0.11100000111548865	-0.7181917307921488	0.09947289336219578	0.12328033644593543	-0.7736246730138469	0.05938082131247858	0.19676366089163885	-0.8897252912283558	-0.06302368270290556	1.4112758619751897	-0.579247580931965	-0.11452707780586528	1.6191308370910882	-0.37052016522103226	-0.07681940124170207	1.4681278774178539	-0.39527806636241947	-0.21568955248565325	1.3586499024502325	-0.6373296236810658	-0.401342461229025	1.168975513342017	-0.6625990212430186	-0.5285285526056264	1.1590352153537222	-0.4372054260432711	0.11686758078472476	1.4358914432229812	-0.6284691424323515	0.3408942195877377	1.443881917185585	-0.6893183848807183	0.5659515455825768	1.4632000693285496	-0.6141526415702873
92	1.5333333333333334	-0.0644214908760246	0.9054401130926856	-0.7037631391527627	-0.09119964092203484	0.5042468746915978	-0.6696062286981259	-0.04866498857669133	0.14594008010953155	-0.7217068966119956	-0.057939093016292575	0.04471476052586135	-0.600348194838662	-0.09986727884449792	0.04328234049160576	-0.6505583234831306	-0.029754110435373828	0.10893927014967413	-0.7934747017553658	0.12678136293905495	0.9100094934016916	-0.757490715134977	0.09445955480255748	0.52284951903676	-0.613291410534206	0.06067978981320725	0.2101846916784944	-0.8052872618478808	0.06613228793438429	0.11099582092148212	-0.6732125396076155	0.10343449302563026	0.12285094656929882	-0.719009807374902	0.06508832653933493	0.18655210463614294	-0.8584140295634511	-0.06864812952015965	1.4078682222516608	-0.5695682391543654	-0.12522066802038	1.6138445610447774	-0.36058271855664265	-0.08396105526716645	1.4609734086443704	-0.38718908964406945	-0.21741222294775167	1.3531713412930875	-0.634934991576286	-0.3977924515839196	1.1581731889242337	-0.6570274301236084	-0.529200700022184	1.1385877160513036	-0.43903065774780525	0.11346509807045818	1.4356546424829921	-0.614585954465309	0.34076033439218567	1.454474963517485	-0.6820646584471609	0.5520326570420673	1.490172543387665	-0.5864703244968544
93	1.55	-0.06333750758516109	0.9054799481818048	-0.7019548587700568	-0.09094165124424153	0.5047718901904802	-0.6617968172647049	-0.04736296049501755	0.14543236660552353	-0.7190599468271295	-0.060180465172854386	0.04562984075581748	-0.6025234777375625	-0.10093121366847432	0.04425540723074234	-0.6523079816326811	-0.02812814597736669	0.10641644418132121	-0.7928216545220885	0.1263288012994234	0.9128271432362876	-0.7544681223526182	0.09437731312633234	0.5260315279102004	-0.5993317333739009	0.06763537644150519	0.20500550631556042	-0.7652801903447706	0.06821991261565145	0.11145805254043355	-0.6271168714541455	0.10533995287600985	0.12365210023035769	-0.6630187623434882	0.07043385433374542	0.17643958534441972	-0.822884628018309	-0.07357171840433568	1.4049100361628086	-0.5603880174759904	-0.1331831134014912	1.6096226451563997	-0.35165899784650245	-0.09019512773030457	1.4551245830976585	-0.3792907862958532	-0.2188771010108728	1.3491823512194627	-0.631801876605418	-0.3942269637743583	1.1492254174027474	-0.6536694823759743	-0.5278296620838338	1.119885031625635	-0.43962450325201174	0.10787435829106566	1.435067190388086	-0.6075357248851563	0.344102099460172	1.4630119921603757	-0.6710048245386664	0.5397385486651822	1.5110164016999434	-0.5569754128262027
94	1.5666666666666669	-0.0630209869164403	0.9053137453406905	-0.6995403906033928	-0.09023661455220482	0.5060945340992326	-0.6533123518909653	-0.0465275663542669	0.14467120133591704	-0.718815729657647	-0.0629985521817525	0.04603855270250325	-0.6052787443509035	-0.10132646442238379	0.04457858662297621	-0.6536096584040554	-0.026623994884103015	0.10402034127887043	-0.7919890456284493	0.12631314457452872	0.9150093228326877	-0.7479157778602432	0.09295780544056217	0.5293073408748291	-0.5862684325352978	0.07318516147238742	0.1984203618501516	-0.7248660887147622	0.0686509511660892	0.11265453531810594	-0.5809220438637962	0.10578010297272332	0.12527496396410104	-0.60845405943281	0.07507029571387275	0.166138139837615	-0.7829967194428057	-0.07775775720355033	1.4029421680408687	-0.5518408949432284	-0.1389045013318677	1.6068360856633919	-0.3435920281856171	-0.09607946277157998	1.4512811795416793	-0.37106951126589977	-0.22007097628403943	1.3466721416029725	-0.6280654040358976	-0.3910019948596123	1.142262248367493	-0.6523724261195442	-0.525133367075536	1.1036875289277694	-0.4397836977448301	0.10162339227659971	1.4350019267166827	-0.6025348445096442	0.3486994075729098	1.4697643488795606	-0.6575947507563529	0.5282125328940956	1.5265028471843882	-0.5275396022721095
95	1.5833333333333333	-0.06330227642311227	0.9047157300926827	-0.6964769357554307	-0.08868108188058324	0.5084642753577996	-0.6438367952020957	-0.0463009953372948	0.14383942446018202	-0.7203546366996263	-0.06588317985345991	0.0462590873560718	-0.6076730382265448	-0.10122016724499162	0.044573312759609074	-0.6545250645018222	-0.02555500109442814	0.10208766740584359	-0.7908705455043822	0.12566621397700986	0.9172093690886552	-0.7410245437735983	0.09058777233286508	0.5326244889812591	-0.5733538833971674	0.07702807963053176	0.19036367767936477	-0.6855141696453928	0.0675082451202614	0.11468845630790533	-0.5358223722556161	0.10543132303369958	0.12655356494707068	-0.5583918239111041	0.07876389883800149	0.15557681107888202	-0.741397292183047	-0.08120102456127352	1.402282751345841	-0.5440401796196218	-0.1431336571835121	1.6055501639306184	-0.3362816926148667	-0.101732719724024	1.4496266502976252	-0.36239243648894953	-0.22085494658375024	1.3457371254802513	-0.6234062631085192	-0.3882083313635147	1.1372211067252098	-0.6526401311197879	-0.5218157957594637	1.0905853748430798	-0.4402021737949754	0.0961980895607454	1.4361285770692374	-0.5956224302726192	0.35203691728121794	1.4747226407202114	-0.6438968346413857	0.5165565268646354	1.537271504800856	-0.4997208026256913
